<svg xmlns="http://www.w3.org/2000/svg" viewBox="0 0 64 64">
  <defs>
    <linearGradient id="g" x1="0" x2="1" y1="0" y2="1">
      <stop offset="0%" stop-color="#0d6efd"/>
      <stop offset="100%" stop-color="#198754"/>
    </linearGradient>
  </defs>
  <rect x="2" y="2" width="60" height="60" rx="14" fill="url(#g)"/>
  <g fill="#fff">
    <path d="M20 32h24a2 2 0 0 1 0 4H20a2 2 0 0 1 0-4z"/>
    <path d="M20 24h24a2 2 0 0 1 0 4H20a2 2 0 0 1 0-4z" opacity=".9"/>
    <path d="M20 40h16a2 2 0 0 1 0 4H20a2 2 0 0 1 0-4z" opacity=".8"/>
    <path d="M18 18l4 4 8-8" stroke="#fff" stroke-width="4" fill="none" stroke-linecap="round" stroke-linejoin="round"/>
  </g>
</svg>
