<?xml version="1.0" encoding="UTF-8"?>
<svg width="800" height="360" viewBox="0 0 800 360" xmlns="http://www.w3.org/2000/svg" role="img" aria-label="Tanaman mekar - produktivitas sangat tinggi">
  <defs>
    <linearGradient id="skyBright" x1="0" y1="0" x2="0" y2="1">
      <stop offset="0%" stop-color="#aee6ff"/>
      <stop offset="100%" stop-color="#dbf6ff"/>
    </linearGradient>
    <linearGradient id="groundVivid" x1="0" y1="0" x2="0" y2="1">
      <stop offset="0%" stop-color="#c6f1a2"/>
      <stop offset="100%" stop-color="#8ed47a"/>
    </linearGradient>
    <radialGradient id="sunGradBright" cx="80%" cy="20%" r="30%">
      <stop offset="0%" stop-color="#fff6b3"/>
      <stop offset="100%" stop-color="#ffd166"/>
    </radialGradient>
    <linearGradient id="leafGrad2" x1="0" y1="0" x2="1" y2="1">
      <stop offset="0%" stop-color="#b0f3a8"/>
      <stop offset="100%" stop-color="#67c96b"/>
    </linearGradient>
  </defs>
  <style>
    @keyframes sway { 0% { transform: rotate(-0.8deg); } 100% { transform: rotate(0.8deg); } }
    .sway { transform-origin: bottom center; animation: sway 1.8s ease-in-out infinite alternate; }
    @keyframes pulse { 0% { transform: scale(1);} 100% { transform: scale(1.04);} }
    .flower { animation: pulse 2.6s ease-in-out infinite alternate; transform-origin: center; }
  </style>

  <rect width="800" height="240" fill="url(#skyBright)" />
  <circle class="sun" cx="620" cy="70" r="36" fill="url(#sunGradBright)"/>
  <rect y="240" width="800" height="120" fill="url(#groundVivid)" />

  <g transform="translate(400,260)" class="sway">
    <rect x="-8" y="-110" width="16" height="110" rx="8" fill="#3f9e2a"/>
    <path d="M0 -98 C -18 -118, -34 -138, -56 -154" stroke="#1f7d12" stroke-width="6" fill="none"/>
    <path d="M0 -82 C 20 -104, 40 -128, 64 -146" stroke="#1f7d12" stroke-width="6" fill="none"/>

    <g transform="translate(-64,-158) rotate(8)">
      <ellipse cx="0" cy="0" rx="26" ry="16" fill="url(#leafGrad2)"/>
      <ellipse cx="-4" cy="-2" rx="18" ry="10" fill="#54b85a"/>
    </g>
    <g transform="translate(70,-148) rotate(-12)">
      <ellipse cx="0" cy="0" rx="24" ry="14" fill="url(#leafGrad2)"/>
      <ellipse cx="-4" cy="-2" rx="16" ry="9" fill="#54b85a"/>
    </g>

    <g class="flower" transform="translate(0,-122)">
      <circle cx="0" cy="0" r="20" fill="#ffd166"/>
      <g fill="#ff6b6b">
        <circle cx="0" cy="-28" r="10"/>
        <circle cx="24" cy="-14" r="10"/>
        <circle cx="24" cy="14" r="10"/>
        <circle cx="0" cy="28" r="10"/>
        <circle cx="-24" cy="14" r="10"/>
        <circle cx="-24" cy="-14" r="10"/>
      </g>
    </g>

    <g transform="translate(0,0)">
      <ellipse cx="0" cy="12" rx="22" ry="10" fill="#6a452a"/>
      <rect x="-12" y="0" width="24" height="12" fill="#52331f"/>
    </g>
  </g>
</svg>
