<?xml version="1.0" encoding="UTF-8"?>
<svg width="800" height="360" viewBox="0 0 800 360" xmlns="http://www.w3.org/2000/svg" role="img" aria-label="Tanaman layu - produktivitas rendah">
  <defs>
    <linearGradient id="skyDull" x1="0" y1="0" x2="0" y2="1">
      <stop offset="0%" stop-color="#b8c1c8"/>
      <stop offset="100%" stop-color="#e7ebee"/>
    </linearGradient>
    <linearGradient id="groundSoil" x1="0" y1="0" x2="0" y2="1">
      <stop offset="0%" stop-color="#c6b18a"/>
      <stop offset="100%" stop-color="#a08861"/>
    </linearGradient>
  </defs>
  <style>
    @keyframes sway { 0% { transform: rotate(-1deg); } 100% { transform: rotate(1deg); } }
    .sway { transform-origin: bottom center; animation: sway 2.6s ease-in-out infinite alternate; }
    .cloud { opacity: .5; }
    @keyframes drift { 0% { transform: translateX(-15px); } 100% { transform: translateX(15px); } }
    .cloud { animation: drift 10s ease-in-out infinite alternate; }
  </style>

  <rect width="800" height="240" fill="url(#skyDull)" />
  <rect y="240" width="800" height="120" fill="url(#groundSoil)" />

  <g class="cloud" transform="translate(60,30)" fill="#fff">
    <ellipse cx="40" cy="18" rx="28" ry="14"/>
    <ellipse cx="64" cy="14" rx="22" ry="11"/>
    <ellipse cx="82" cy="19" rx="20" ry="10"/>
  </g>
  <g class="cloud" transform="translate(560,50)" fill="#fff">
    <ellipse cx="40" cy="18" rx="28" ry="14"/>
    <ellipse cx="64" cy="14" rx="22" ry="11"/>
    <ellipse cx="82" cy="19" rx="20" ry="10"/>
  </g>

  <g transform="translate(400,255)" class="sway">
    <rect x="-9" y="-50" width="18" height="50" rx="6" fill="#76522e"/>
    <path d="M0 -50 C -12 -60, -20 -74, -28 -84" stroke="#7aa26f" stroke-width="5" fill="none"/>
    <path d="M0 -28 C 8 -38, 18 -48, 24 -58" stroke="#7aa26f" stroke-width="4" fill="none"/>

    <g transform="translate(-32,-88) rotate(20)">
      <ellipse cx="0" cy="0" rx="16" ry="10" fill="#9dc39b"/>
      <ellipse cx="-4" cy="-2" rx="12" ry="7" fill="#8aad88"/>
    </g>
    <g transform="translate(30,-62) rotate(-30)">
      <ellipse cx="0" cy="0" rx="12" ry="8" fill="#9dc39b"/>
      <ellipse cx="-3" cy="-1" rx="8" ry="5" fill="#8aad88"/>
    </g>

    <g transform="translate(0,0)">
      <ellipse cx="0" cy="12" rx="18" ry="8" fill="#88623b"/>
      <rect x="-12" y="0" width="24" height="12" fill="#704b28"/>
    </g>
  </g>
</svg>
