<?xml version="1.0" encoding="UTF-8"?>
<svg width="800" height="360" viewBox="0 0 800 360" xmlns="http://www.w3.org/2000/svg" role="img" aria-label="Tanaman mati - produktivitas sangat rendah">
  <defs>
    <linearGradient id="skyGray" x1="0" y1="0" x2="0" y2="1">
      <stop offset="0%" stop-color="#a7a9ac"/>
      <stop offset="100%" stop-color="#dfe2e6"/>
    </linearGradient>
    <linearGradient id="groundDry" x1="0" y1="0" x2="0" y2="1">
      <stop offset="0%" stop-color="#c2a878"/>
      <stop offset="100%" stop-color="#9c815a"/>
    </linearGradient>
  </defs>
  <style>
    .cloud { opacity: .4; }
    @keyframes drift { 0% { transform: translateX(-20px); } 100% { transform: translateX(20px); } }
    .cloud { animation: drift 8s ease-in-out infinite alternate; }
  </style>

  <rect width="800" height="240" fill="url(#skyGray)" />
  <g opacity="0.25" fill="#8b8f94">
    <path d="M0 220 L80 170 L140 210 L200 160 L260 200 L320 150 L380 210 L440 170 L520 210 L600 160 L680 210 L760 170 L800 200 L800 240 L0 240 Z"/>
  </g>
  <rect y="240" width="800" height="120" fill="url(#groundDry)" />
  <g stroke="#6f5a3b" stroke-width="2" opacity="0.4">
    <path d="M380 250 L395 275 L380 300"/>
    <path d="M410 255 L400 280 L420 305"/>
  </g>

  <g class="cloud" transform="translate(0,20)">
    <ellipse cx="120" cy="40" rx="40" ry="20" fill="#ffffff"/>
    <ellipse cx="150" cy="38" rx="30" ry="16" fill="#ffffff"/>
    <ellipse cx="175" cy="42" rx="28" ry="14" fill="#ffffff"/>
  </g>
  <g class="cloud" transform="translate(520,10)">
    <ellipse cx="120" cy="40" rx="40" ry="20" fill="#ffffff"/>
    <ellipse cx="150" cy="38" rx="30" ry="16" fill="#ffffff"/>
    <ellipse cx="175" cy="42" rx="28" ry="14" fill="#ffffff"/>
  </g>

  <g transform="translate(400,260)">
    <path d="M0 0 C -5 -20, -10 -50, -8 -80" stroke="#6b4f2a" stroke-width="6" fill="none" />
    <path d="M-8 -50 C -25 -45, -28 -40, -38 -30" stroke="#6b4f2a" stroke-width="4" fill="none" />
    <ellipse cx="-28" cy="10" rx="12" ry="6" fill="#7a5b34" opacity="0.7"/>
    <ellipse cx="12" cy="18" rx="10" ry="5" fill="#7a5b34" opacity="0.7"/>
    <path d="M-10 0 L-12 10 M0 0 L0 10 M10 0 L12 11" stroke="#7a5b34" stroke-width="2" />
  </g>
</svg>
