<?xml version="1.0" encoding="UTF-8"?>
<svg width="800" height="360" viewBox="0 0 800 360" xmlns="http://www.w3.org/2000/svg" role="img" aria-label="Tanaman tumbuh - produktivitas sedang">
  <defs>
    <linearGradient id="skySoft" x1="0" y1="0" x2="0" y2="1">
      <stop offset="0%" stop-color="#cfe9ff"/>
      <stop offset="100%" stop-color="#eaf6ff"/>
    </linearGradient>
    <linearGradient id="groundGreen" x1="0" y1="0" x2="0" y2="1">
      <stop offset="0%" stop-color="#d7e6c8"/>
      <stop offset="100%" stop-color="#bcd3a5"/>
    </linearGradient>
    <radialGradient id="sunGrad" cx="50%" cy="20%" r="30%">
      <stop offset="0%" stop-color="#fff3b0"/>
      <stop offset="100%" stop-color="#ffd166"/>
    </radialGradient>
  </defs>
  <style>
    @keyframes sway { 0% { transform: rotate(-1deg); } 100% { transform: rotate(1deg); } }
    .sway { transform-origin: bottom center; animation: sway 2.2s ease-in-out infinite alternate; }
    @keyframes float { 0% { transform: translateY(0);} 100% { transform: translateY(-6px);} }
    .sun { animation: float 4s ease-in-out infinite alternate; }
  </style>

  <rect width="800" height="240" fill="url(#skySoft)" />
  <circle class="sun" cx="120" cy="70" r="34" fill="url(#sunGrad)"/>
  <rect y="240" width="800" height="120" fill="url(#groundGreen)" />

  <g transform="translate(400,260)" class="sway">
    <rect x="-7" y="-70" width="14" height="70" rx="6" fill="#6aa84f"/>
    <path d="M0 -58 C -12 -74, -24 -86, -36 -96" stroke="#4d8f3a" stroke-width="5" fill="none"/>
    <path d="M0 -40 C 10 -54, 26 -68, 36 -82" stroke="#4d8f3a" stroke-width="4" fill="none"/>

    <g transform="translate(-40,-102) rotate(12)">
      <ellipse cx="0" cy="0" rx="18" ry="12" fill="#9bd18b"/>
      <ellipse cx="-2" cy="-2" rx="12" ry="8" fill="#7fbe73"/>
    </g>
    <g transform="translate(42,-88) rotate(-20)">
      <ellipse cx="0" cy="0" rx="16" ry="10" fill="#9bd18b"/>
      <ellipse cx="-3" cy="-1" rx="10" ry="6" fill="#7fbe73"/>
    </g>

    <g transform="translate(0,0)">
      <ellipse cx="0" cy="12" rx="18" ry="8" fill="#7a5739"/>
      <rect x="-12" y="0" width="24" height="12" fill="#65462b"/>
    </g>
  </g>
</svg>
